# xmcd CD database file
#
# Track frame offsets:
#	150
#	32036
#	50544
#	79127
#	102415
#	121605
#	148063
#	174680
#	201755
#
# Disc length: 3115 seconds
#
# Revision: 0
# Processed by: cddbd v1.5.2PL0 Copyright (c) Steve Scherf et al.
# Submitted via: CDex 1.51
#
DISCID=790c2909
DTITLE=Peter Herbolzheimer All Star Big Band - Jazz Gala 77 - CD 2
DYEAR=1977
DGENRE=Jazz
TTITLE0=Wheeler's Choice
TTITLE1=Hypnotic Pig Nose
TTITLE2=Ant Stepped On An Elephant's Toe
TTITLE3=Supraconductivity
TTITLE4=Sideways
TTITLE5=Corean Chick
TTITLE6=Spanish Flower
TTITLE7=N Eosho
TTITLE8=Hip Walk
EXTD=YEAR: 1977
EXTT0=
EXTT1=
EXTT2=
EXTT3=
EXTT4=
EXTT5=
EXTT6=
EXTT7=
EXTT8=
PLAYORDER=
